<?xml version="1.0" encoding="utf-8"?>
<!-- Generator: Adobe Illustrator 19.1.0, SVG Export Plug-In . SVG Version: 6.00 Build 0)  -->
<!DOCTYPE svg PUBLIC "-//W3C//DTD SVG 1.1//EN" "http://www.w3.org/Graphics/SVG/1.1/DTD/svg11.dtd">
<svg version="1.1" id="Capa_1" xmlns="http://www.w3.org/2000/svg" xmlns:xlink="http://www.w3.org/1999/xlink" x="0px" y="0px"
	 viewBox="-993 739 60 60" style="enable-background:new -993 739 60 60;" xml:space="preserve">
<style type="text/css">
	.st0{fill:#FFFFFF;}
</style>
<g>
	<path class="st0" d="M-936,752.7C-936,752.7-936.1,752.7-936,752.7c0-0.1-0.1-0.2-0.1-0.2c0,0,0-0.1-0.1-0.1c0,0-0.1-0.1-0.1-0.1
		c0,0-0.1,0-0.1-0.1c0,0-0.1,0-0.1-0.1c0,0,0,0-0.1,0c0,0,0,0,0,0l-26-13c0,0,0,0,0,0c-0.1-0.1-0.3-0.1-0.4-0.1s-0.3,0-0.4,0.1
		c0,0,0,0,0,0l-26,13c0,0,0,0,0,0c0,0,0,0-0.1,0c0,0-0.1,0-0.1,0.1c0,0-0.1,0-0.1,0.1c0,0-0.1,0.1-0.1,0.1c0,0,0,0.1-0.1,0.1
		c0,0.1-0.1,0.1-0.1,0.2c0,0,0,0,0,0.1c0,0.1,0,0.2,0,0.3v32c0,0,0,0,0,0c0,0,0,0,0,0.1c0,0.1,0,0.2,0.1,0.3c0,0,0,0,0,0
		c0,0,0,0,0,0c0,0,0.1,0.1,0.1,0.1c0,0,0.1,0.1,0.1,0.1c0,0,0.1,0.1,0.1,0.1c0,0,0.1,0.1,0.1,0.1c0,0,0,0,0,0l26,13c0,0,0,0,0,0
		c0.1,0.1,0.3,0.1,0.4,0.1s0.3,0,0.4-0.1c0,0,0,0,0,0l26-13c0.3-0.2,0.6-0.5,0.6-0.9v-32C-936,752.9-936,752.8-936,752.7z
		 M-986.3,783.7c-0.2-0.5-0.8-0.7-1.3-0.5l-0.4,0.2v-28.9l24,11.1v30.7l-22.7-11.4C-986.3,784.8-986.1,784.2-986.3,783.7z M-963,742
		c0.4,0,0.6-0.2,0.8-0.5l22.9,11.4l-22.7,10.5V763c0-0.6-0.4-1-1-1s-1,0.4-1,1v0.4l-22.7-10.5l22.9-11.4
		C-963.6,741.8-963.4,742-963,742z M-962,774.6l1.6,0.8c0.1,0.1,0.3,0.1,0.4,0.1c0.4,0,0.7-0.2,0.9-0.6c0.2-0.5,0-1.1-0.5-1.3
		l-1.8-0.8c-0.2-0.1-0.4-0.1-0.7,0v-7l24-11.1v28.9l-1.6-0.7c-0.5-0.2-1.1,0-1.3,0.5c-0.2,0.5,0,1.1,0.5,1.3l1.1,0.5l-22.7,11.3
		V774.6z"/>
	<path class="st0" d="M-972.7,778.5c0.1,0,0.3,0,0.4-0.1l1.8-0.8c0.5-0.2,0.7-0.8,0.5-1.3c-0.2-0.5-0.8-0.7-1.3-0.5l-1.8,0.8
		c-0.5,0.2-0.7,0.8-0.5,1.3C-973.4,778.2-973,778.5-972.7,778.5z"/>
	<path class="st0" d="M-978.1,781c0.1,0,0.3,0,0.4-0.1l1.8-0.8c0.5-0.2,0.7-0.8,0.5-1.3c-0.2-0.5-0.8-0.7-1.3-0.5l-1.8,0.8
		c-0.5,0.2-0.7,0.8-0.5,1.3C-978.8,780.8-978.5,781-978.1,781z"/>
	<path class="st0" d="M-983.6,783.5c0.1,0,0.3,0,0.4-0.1l1.8-0.8c0.5-0.2,0.7-0.8,0.5-1.3c-0.2-0.5-0.8-0.7-1.3-0.5l-1.8,0.8
		c-0.5,0.2-0.7,0.8-0.5,1.3C-984.3,783.3-983.9,783.5-983.6,783.5z"/>
	<path class="st0" d="M-948.6,778.5l-1.8-0.8c-0.5-0.2-1.1,0-1.3,0.5c-0.2,0.5,0,1.1,0.5,1.3l1.8,0.8c0.1,0.1,0.3,0.1,0.4,0.1
		c0.4,0,0.7-0.2,0.9-0.6C-947.9,779.4-948.1,778.8-948.6,778.5z"/>
	<path class="st0" d="M-943.2,781l-1.8-0.8c-0.5-0.2-1.1,0-1.3,0.5c-0.2,0.5,0,1.1,0.5,1.3l1.8,0.8c0.1,0.1,0.3,0.1,0.4,0.1
		c0.4,0,0.7-0.2,0.9-0.6C-942.5,781.9-942.7,781.3-943.2,781z"/>
	<path class="st0" d="M-954.1,776l-1.8-0.8c-0.5-0.2-1.1,0-1.3,0.5c-0.2,0.5,0,1.1,0.5,1.3l1.8,0.8c0.1,0.1,0.3,0.1,0.4,0.1
		c0.4,0,0.7-0.2,0.9-0.6C-953.4,776.8-953.6,776.2-954.1,776z"/>
	<path class="st0" d="M-967.2,775.9c0.1,0,0.3,0,0.4-0.1l1.8-0.8c0.5-0.2,0.7-0.8,0.5-1.3c-0.2-0.5-0.8-0.7-1.3-0.5l-1.8,0.8
		c-0.5,0.2-0.7,0.8-0.5,1.3C-967.9,775.7-967.6,775.9-967.2,775.9z"/>
	<path class="st0" d="M-963,748c0.6,0,1-0.4,1-1v-2c0-0.6-0.4-1-1-1s-1,0.4-1,1v2C-964,747.6-963.6,748-963,748z"/>
	<path class="st0" d="M-963,754c0.6,0,1-0.4,1-1v-2c0-0.6-0.4-1-1-1s-1,0.4-1,1v2C-964,753.6-963.6,754-963,754z"/>
	<path class="st0" d="M-963,760c0.6,0,1-0.4,1-1v-2c0-0.6-0.4-1-1-1s-1,0.4-1,1v2C-964,759.6-963.6,760-963,760z"/>
</g>
</svg>
