<?xml version="1.0" encoding="utf-8"?>
<!-- Generator: Adobe Illustrator 19.1.0, SVG Export Plug-In . SVG Version: 6.00 Build 0)  -->
<!DOCTYPE svg PUBLIC "-//W3C//DTD SVG 1.1//EN" "http://www.w3.org/Graphics/SVG/1.1/DTD/svg11.dtd">
<svg version="1.1" id="Capa_1" xmlns="http://www.w3.org/2000/svg" xmlns:xlink="http://www.w3.org/1999/xlink" x="0px" y="0px"
	 viewBox="-767 513 512 512" style="enable-background:new -767 513 512 512;" xml:space="preserve">
<style type="text/css">
	.st0{fill:#FFFFFF;}
</style>
<g>
	<g>
		<path class="st0" d="M-313.7,607.9c4.8,0,8.7-3.9,8.7-8.7v-27.5c0-4.8-3.9-8.7-8.7-8.7h-394.6c-4.8,0-8.7,3.9-8.7,8.7v394.6
			c0,4.8,3.9,8.7,8.7,8.7h394.6c4.8,0,8.7-3.9,8.7-8.7V628.2c0-4.8-3.9-8.7-8.7-8.7c-4.8,0-8.7,3.9-8.7,8.7v149.4H-357
			c-4.8,0-8.7,3.9-8.7,8.7s3.9,8.7,8.7,8.7h34.6v162.5h-249.2v-42.2c0-4.8-3.9-8.7-8.7-8.7s-8.7,3.9-8.7,8.7v42.2h-110.6V580.4H-589
			v272.2c0,4.8,3.9,8.7,8.7,8.7s8.7-3.9,8.7-8.7v-57.6h155.2c4.8,0,8.7-3.9,8.7-8.7c0-4.8-3.9-8.7-8.7-8.7h-155.2V580.4h249.2v18.7
			C-322.4,603.9-318.5,607.9-313.7,607.9z"/>
	</g>
</g>
</svg>
