<?xml version="1.0" encoding="utf-8"?>
<!-- Generator: Adobe Illustrator 18.1.1, SVG Export Plug-In . SVG Version: 6.00 Build 0)  -->
<svg version="1.1" id="Слой_1" xmlns="http://www.w3.org/2000/svg" xmlns:xlink="http://www.w3.org/1999/xlink" x="0px" y="0px"
	 viewBox="0 0 39 43" enable-background="new 0 0 39 43" xml:space="preserve">
<path fill="#FFFFFF" d="M31.7,9.9c-1.2-1.5-2.6-2.5-4.3-2.9c-1.1-0.3-3.5-0.5-7.2-0.5h-9.7v13.6H5.6v5.1h4.8v2.2H5.6v5.1h4.8v4.1
	h6.1v-4.1h10.2v-5.1H16.4v-2.1h4c2.7,0,4.8-0.1,6.3-0.4c1.1-0.2,2.1-0.7,3.1-1.4c1-0.7,1.9-1.7,2.6-3s1-2.8,1-4.7
	C33.4,13.3,32.8,11.4,31.7,9.9z M26.5,18.1c-0.5,0.7-1.1,1.2-1.9,1.5s-2.4,0.5-4.8,0.5h-3.3v-8.5h2.9c2.2,0,3.6,0.1,4.4,0.2
	c1,0.2,1.8,0.6,2.4,1.3s1,1.6,1,2.7C27.1,16.7,26.9,17.5,26.5,18.1z"/>
</svg>
