<svg xmlns="http://www.w3.org/2000/svg" xmlns:xlink="http://www.w3.org/1999/xlink" preserveAspectRatio="xMidYMid" width="35" height="34" viewBox="0 0 35 34">
  <defs>
    <style>
      .cls-1 {
        fill: #fab11a;
        fill-rule: evenodd;
      }
    </style>
  </defs>
  <path d="M34.016,18.020 L17.941,18.020 C17.482,20.308 15.456,22.028 13.044,22.028 C10.625,22.028 8.606,20.301 8.147,18.020 L0.991,18.020 C0.445,18.020 0.007,17.583 0.007,17.036 C0.007,16.490 0.445,16.053 0.991,16.053 L8.147,16.053 C8.606,13.772 10.625,12.045 13.044,12.045 C15.463,12.045 17.482,13.772 17.941,16.053 L34.016,16.053 C34.563,16.053 35.000,16.490 35.000,17.036 C35.000,17.583 34.563,18.020 34.016,18.020 ZM13.044,14.012 C11.375,14.012 10.020,15.368 10.020,17.036 C10.020,18.705 11.375,20.060 13.044,20.060 C14.713,20.060 16.068,18.705 16.068,17.036 C16.068,15.368 14.713,14.012 13.044,14.012 ZM34.016,5.975 L26.190,5.975 C25.731,8.256 23.720,9.983 21.300,9.983 C18.881,9.983 16.862,8.256 16.403,5.975 L0.991,5.975 C0.445,5.975 0.007,5.538 0.007,4.991 C0.007,4.445 0.445,4.008 0.991,4.008 L16.396,4.008 C16.855,1.727 18.874,-0.000 21.293,-0.000 C23.712,-0.000 25.731,1.727 26.190,4.008 L34.016,4.008 C34.563,4.008 35.000,4.445 35.000,4.991 C35.000,5.538 34.563,5.975 34.016,5.975 ZM21.293,1.967 C19.624,1.967 18.269,3.323 18.269,4.991 C18.269,6.653 19.624,8.015 21.293,8.015 C22.962,8.015 24.317,6.660 24.317,4.991 C24.317,3.323 22.962,1.967 21.293,1.967 ZM0.984,28.025 L16.396,28.025 C16.855,25.744 18.874,24.017 21.293,24.017 C23.712,24.017 25.731,25.744 26.190,28.025 L34.016,28.025 C34.563,28.025 35.000,28.462 35.000,29.009 C35.000,29.555 34.563,29.992 34.016,29.992 L26.190,29.992 C25.731,32.280 23.720,34.000 21.300,34.000 C18.881,34.000 16.862,32.273 16.403,29.992 L0.984,29.992 C0.437,29.992 0.000,29.555 0.000,29.009 C0.000,28.462 0.437,28.025 0.984,28.025 ZM21.293,32.033 C22.962,32.033 24.317,30.677 24.317,29.009 C24.317,27.340 22.962,25.985 21.293,25.985 C19.624,25.985 18.269,27.340 18.269,29.009 C18.269,30.677 19.624,32.033 21.293,32.033 Z" class="cls-1"/>
</svg>
