<?xml version="1.0" encoding="utf-8"?>
<!-- Generator: Adobe Illustrator 17.1.0, SVG Export Plug-In . SVG Version: 6.00 Build 0)  -->
<!DOCTYPE svg PUBLIC "-//W3C//DTD SVG 1.1//EN" "http://www.w3.org/Graphics/SVG/1.1/DTD/svg11.dtd">
<svg version="1.1" xmlns="http://www.w3.org/2000/svg" xmlns:xlink="http://www.w3.org/1999/xlink" x="0px" y="0px"
	 viewBox="0 0 264.2 291.7" enable-background="new 0 0 264.2 291.7" xml:space="preserve">
<g id="Layer_1">
	<g>
		<rect x="1.1" y="33.9" opacity="0.21" fill="#0A2E43" width="22.7" height="50.2"/>
		<rect x="98" y="8" opacity="0.21" fill="#0A2E43" width="67.8" height="19"/>
		<rect x="98.2" y="33.9" opacity="0.21" fill="#0A2E43" width="67.8" height="224"/>
		<rect x="1.1" y="96.5" opacity="0.21" fill="#0A2E43" width="22.7" height="44.3"/>
		<rect x="1.1" y="154.8" opacity="0.21" fill="#0A2E43" width="22.7" height="26.4"/>
		<rect x="1.1" y="194" opacity="0.21" fill="#0A2E43" width="22.7" height="26.4"/>
		<rect x="1.1" y="231.4" opacity="0.21" fill="#0A2E43" width="22.7" height="26.4"/>
		<rect x="31.4" y="33.9" opacity="0.21" fill="#0A2E43" width="25.9" height="50.2"/>
		<rect x="31.4" y="96.5" opacity="0.21" fill="#0A2E43" width="25.9" height="44.3"/>
		<rect x="31.4" y="154.8" opacity="0.21" fill="#0A2E43" width="25.9" height="26.4"/>
		<rect x="31.4" y="194" opacity="0.21" fill="#0A2E43" width="25.9" height="26.4"/>
		<rect x="31.4" y="231.4" opacity="0.21" fill="#0A2E43" width="25.9" height="26.4"/>
		<rect x="1.1" y="260.4" opacity="0.21" fill="#0A2E43" width="262.1" height="8.3"/>
		<rect x="65" y="33.9" opacity="0.21" fill="#0A2E43" width="14.4" height="50.2"/>
		<rect x="65" y="96.5" opacity="0.21" fill="#0A2E43" width="14.4" height="44.3"/>
		<rect x="65" y="154.8" opacity="0.21" fill="#0A2E43" width="14.4" height="26.4"/>
		<rect x="65" y="194" opacity="0.21" fill="#0A2E43" width="14.4" height="26.4"/>
		<rect x="65" y="231.4" opacity="0.21" fill="#0A2E43" width="14.4" height="26.4"/>
		<rect x="240.4" y="33.9" opacity="0.21" fill="#0A2E43" width="22.7" height="50.2"/>
		<rect x="240.4" y="96.5" opacity="0.21" fill="#0A2E43" width="22.7" height="44.3"/>
		<rect x="240.4" y="154.8" opacity="0.21" fill="#0A2E43" width="22.7" height="26.4"/>
		<rect x="240.4" y="194" opacity="0.21" fill="#0A2E43" width="22.7" height="26.4"/>
		<rect x="240.4" y="231.4" opacity="0.21" fill="#0A2E43" width="22.7" height="26.4"/>
		<rect x="206.9" y="33.9" opacity="0.21" fill="#0A2E43" width="25.9" height="50.2"/>
		<rect x="206.9" y="96.5" opacity="0.21" fill="#0A2E43" width="25.9" height="44.3"/>
		<rect x="206.9" y="154.8" opacity="0.21" fill="#0A2E43" width="25.9" height="26.4"/>
		<rect x="206.9" y="194" opacity="0.21" fill="#0A2E43" width="25.9" height="26.4"/>
		<rect x="206.9" y="231.4" opacity="0.21" fill="#0A2E43" width="25.9" height="26.4"/>
		<rect x="184.8" y="33.9" opacity="0.21" fill="#0A2E43" width="14.4" height="50.2"/>
		<rect x="184.8" y="96.5" opacity="0.21" fill="#0A2E43" width="14.4" height="44.3"/>
		<rect x="184.8" y="154.8" opacity="0.21" fill="#0A2E43" width="14.4" height="26.4"/>
		<rect x="184.8" y="194" opacity="0.21" fill="#0A2E43" width="14.4" height="26.4"/>
		<rect x="184.8" y="231.4" opacity="0.21" fill="#0A2E43" width="14.4" height="26.4"/>
		<polygon fill="none" stroke="#FFFFFF" stroke-width="2.1269" stroke-miterlimit="10" points="175.4,24.6 175.4,1.2 88.7,1.2 
			88.7,24.6 1.1,24.6 1.1,290.6 263.1,290.6 263.1,24.6 		"/>
		<rect x="88.7" y="1.2" fill="none" stroke="#FFFFFF" stroke-width="2.4241" stroke-miterlimit="10" width="86.7" height="258.2"/>
		
			<rect x="1.1" y="259.8" fill="none" stroke="#FFFFFF" stroke-width="2.1111" stroke-miterlimit="10" width="262.1" height="30.8"/>
	</g>
</g>
<g id="Layer_2" display="none">
	<rect x="5.1" y="259.9" display="inline" opacity="0.61" fill="#FAB11A" width="254" height="16.4"/>
	<rect x="5.1" y="243.5" display="inline" opacity="0.61" fill="#FAB11A" width="254" height="16.4"/>
	<rect x="5.1" y="227.2" display="inline" opacity="0.61" fill="#FAB11A" width="254" height="16.4"/>
	<rect x="5.1" y="210.8" display="inline" opacity="0.61" fill="#FAB11A" width="254" height="16.4"/>
	<rect x="5.1" y="194.4" display="inline" opacity="0.61" fill="#FAB11A" width="254" height="16.4"/>
	<rect x="5.1" y="178.2" display="inline" opacity="0.61" fill="#FAB11A" width="254" height="16.4"/>
	<rect x="5.1" y="162.4" display="inline" opacity="0.61" fill="#FAB11A" width="254" height="16.4"/>
	<rect x="5.1" y="146" display="inline" opacity="0.61" fill="#FAB11A" width="254" height="16.4"/>
	<rect x="5.1" y="129.7" display="inline" opacity="0.61" fill="#FAB11A" width="254" height="16.4"/>
	<rect x="5.1" y="113.3" display="inline" opacity="0.61" fill="#FAB11A" width="254" height="16.4"/>
	<rect x="5.1" y="96.9" display="inline" opacity="0.61" fill="#FAB11A" width="254" height="16.4"/>
	<rect x="5.1" y="80.7" display="inline" opacity="0.61" fill="#FAB11A" width="254" height="16.4"/>
	<rect x="5.1" y="64.3" display="inline" opacity="0.61" fill="#8EFA1A" width="254" height="16.4"/>
	<rect x="5.1" y="47.9" display="inline" opacity="0.61" fill="#FAB11A" width="254" height="16.4"/>
	<rect x="5.1" y="31.6" display="inline" opacity="0.61" fill="#FAB11A" width="254" height="16.4"/>
</g>
</svg>
