<?xml version="1.0" encoding="utf-8"?>
<!-- Generator: Adobe Illustrator 17.1.0, SVG Export Plug-In . SVG Version: 6.00 Build 0)  -->
<!DOCTYPE svg PUBLIC "-//W3C//DTD SVG 1.1//EN" "http://www.w3.org/Graphics/SVG/1.1/DTD/svg11.dtd">
<svg version="1.1" id="Layer_1" xmlns="http://www.w3.org/2000/svg" xmlns:xlink="http://www.w3.org/1999/xlink" x="0px" y="0px"
	 viewBox="0 0 160.9 291.2" enable-background="new 0 0 160.9 291.2" xml:space="preserve">
<g display="none">
	<rect x="0.8" y="33.6" display="inline" opacity="0.21" fill="#0A2E43" width="24.3" height="50.2"/>
	<rect x="62.2" y="7.8" display="inline" opacity="0.21" fill="#0A2E43" width="36.3" height="19"/>
	<rect x="62.3" y="33.6" display="inline" opacity="0.21" fill="#0A2E43" width="36.3" height="224"/>
	<rect x="135.7" y="33.6" display="inline" opacity="0.21" fill="#0A2E43" width="24.3" height="50.2"/>
	<rect x="0.8" y="96.3" display="inline" opacity="0.21" fill="#0A2E43" width="24.3" height="44.3"/>
	<rect x="135.7" y="96.3" display="inline" opacity="0.21" fill="#0A2E43" width="24.3" height="44.3"/>
	<rect x="0.8" y="154.5" display="inline" opacity="0.21" fill="#0A2E43" width="24.3" height="26.4"/>
	<rect x="135.7" y="154.5" display="inline" opacity="0.21" fill="#0A2E43" width="24.3" height="26.4"/>
	<rect x="0.8" y="193.7" display="inline" opacity="0.21" fill="#0A2E43" width="24.3" height="26.4"/>
	<rect x="135.7" y="193.7" display="inline" opacity="0.21" fill="#0A2E43" width="24.3" height="26.4"/>
	<rect x="0.8" y="231.1" display="inline" opacity="0.21" fill="#0A2E43" width="24.3" height="26.4"/>
	<rect x="0.8" y="260.2" display="inline" opacity="0.21" fill="#0A2E43" width="159.2" height="8.3"/>
	<rect x="135.7" y="231.1" display="inline" opacity="0.21" fill="#0A2E43" width="24.3" height="26.4"/>
	<rect x="112.9" y="33.6" display="inline" opacity="0.21" fill="#0A2E43" width="12.2" height="50.2"/>
	<rect x="112.9" y="96.3" display="inline" opacity="0.21" fill="#0A2E43" width="12.2" height="44.3"/>
	<rect x="112.9" y="154.5" display="inline" opacity="0.21" fill="#0A2E43" width="12.2" height="26.4"/>
	<rect x="112.9" y="193.7" display="inline" opacity="0.21" fill="#0A2E43" width="12.2" height="26.4"/>
	<rect x="112.9" y="231.1" display="inline" opacity="0.21" fill="#0A2E43" width="12.2" height="26.4"/>
	<rect x="36.3" y="33.6" display="inline" opacity="0.21" fill="#0A2E43" width="12.2" height="50.2"/>
	<rect x="36.3" y="96.3" display="inline" opacity="0.21" fill="#0A2E43" width="12.2" height="44.3"/>
	<rect x="36.3" y="154.5" display="inline" opacity="0.21" fill="#0A2E43" width="12.2" height="26.4"/>
	<rect x="36.3" y="193.7" display="inline" opacity="0.21" fill="#0A2E43" width="12.2" height="26.4"/>
	<rect x="36.3" y="231.1" display="inline" opacity="0.21" fill="#0A2E43" width="12.2" height="26.4"/>
	<polygon display="inline" fill="none" stroke="#FFFFFF" stroke-width="1.6578" stroke-miterlimit="10" points="106.8,24.3 
		106.8,0.9 54.1,0.9 54.1,24.3 0.8,24.3 0.8,290.3 160,290.3 160,24.3 	"/>
	
		<rect x="54.1" y="0.9" display="inline" fill="none" stroke="#FFFFFF" stroke-width="1.8894" stroke-miterlimit="10" width="52.7" height="258.2"/>
	
		<rect x="0.8" y="259.6" display="inline" fill="none" stroke="#FFFFFF" stroke-width="1.6455" stroke-miterlimit="10" width="159.2" height="30.8"/>
</g>
<rect x="3.8" y="113" opacity="0.61" fill="#FAB11A" width="154.3" height="16.4"/>
<rect x="3.8" y="96.6" opacity="0.61" fill="#FAB11A" width="154.3" height="16.4"/>
<rect x="3.8" y="80.4" opacity="0.61" fill="#FAB11A" width="154.3" height="16.2"/>
<rect x="3.8" y="64" opacity="0.61" fill="#8EFA1A" width="154.3" height="16.4"/>
<rect x="3.8" y="47.6" opacity="0.61" fill="#FAB11A" width="154.3" height="16.4"/>
<rect x="3.8" y="31.4" opacity="0.61" fill="#FAB11A" width="154.3" height="16.2"/>
<rect x="3.8" y="162.1" opacity="0.61" fill="#FAB11A" width="154.3" height="16.4"/>
<rect x="3.8" y="145.9" opacity="0.61" fill="#FAB11A" width="154.3" height="16.2"/>
<rect x="3.8" y="129.5" opacity="0.61" fill="#FAB11A" width="154.3" height="16.4"/>
<rect x="3.8" y="210.6" opacity="0.61" fill="#FAB11A" width="154.3" height="16.4"/>
<rect x="3.8" y="194.1" opacity="0.61" fill="#FAB11A" width="154.3" height="16.4"/>
<rect x="3.8" y="178.5" opacity="0.61" fill="#FAB11A" width="154.3" height="15.6"/>
<rect x="3.8" y="259.6" opacity="0.61" fill="#FAB11A" width="154.3" height="16.4"/>
<rect x="3.8" y="243.4" opacity="0.61" fill="#FAB11A" width="154.3" height="16.2"/>
<rect x="3.8" y="227" opacity="0.61" fill="#FAB11A" width="154.3" height="16.4"/>
</svg>
