<svg xmlns="http://www.w3.org/2000/svg" viewBox="0 0 1000 1000">
    <defs><style>.cls-1{fill:#fab11a;opacity:0.61;}</style></defs>
    <title>2Artboard 1</title><g id="Layer_3" data-name="Layer 3">


    <polygon class="cls-1" points="210.09 61.68 291.91 61.68 291.91 85.88 310.11 85.88 310.11 75.9 301.89 75.9 301.89 54.69 385.96 54.69 385.96 75.9 354.78 75.9 354.78 85.88 389.71 85.88 389.71 200.14 288.67 200.14 288.67 206.37 263.48 206.37 263.48 200.01 248.26 200.01 248.26 193.65 206.84 193.65 206.84 135.27 210.09 135.27 210.09 61.68"/>



    <polygon class="cls-1" points="21.99 201.14 21.99 86.88 51.17 86.88 51.17 76.9 15 76.9 15 55.69 105.56 55.69 105.56 76.9 96.33 76.9 96.33 86.88 115.54 86.88 115.54 62.68 198.36 62.68 198.36 136.27 201.61 136.27 201.61 194.15 160.19 194.15 160.19 201.01 150.22 201.01 150.22 207.37 125.02 207.37 125.02 201.13 21.99 201.14"/>



    <polygon class="cls-1" points="22.98 206.37 110.3 206.37 110.3 251.28 126.02 251.28 126.02 245.04 151.22 245.04 151.22 251.28 161.19 251.28 161.19 257.76 202.6 257.76 202.6 324.12 199.36 324.12 199.36 403.71 202.6 403.71 202.6 427.16 116.54 427.16 116.54 397.22 97.33 397.22 97.33 407.2 106.56 407.2 106.56 434.14 16 434.14 16 407.2 52.17 407.2 52.17 397.22 22.99 397.22 22.98 206.37"/>


    <polygon class="cls-1" points="891.63 407.2 891.63 434.14 982.19 434.14 982.19 407.2 975.21 407.2 975.21 206.37 887.89 206.37 887.89 251.28 872.18 251.28 872.18 245.04 846.98 245.04 846.98 251.28 837 251.28 837 257.64 795.59 257.64 795.59 319.13 798.83 319.13 798.83 403.46 795.59 403.46 795.59 427.16 881.66 427.16 881.66 397.22 930.06 397.22 930.06 407.2 891.63 407.2"/>


    <polygon class="cls-1" points="975.21 200.14 975.21 75.9 982.2 75.9 982.2 54.69 891.63 54.69 891.63 75.9 930.05 75.9 930.05 85.88 881.66 85.88 881.66 61.68 798.83 61.68 798.83 135.27 795.59 135.27 795.59 193.65 837 193.65 837 200.01 846.98 200.01 846.98 206.37 872.18 206.37 872.18 200.13 975.21 200.14"/>


    <polygon class="cls-1" points="607.49 200.14 607.49 85.88 650.64 85.88 650.64 75.9 611.23 75.9 611.23 54.69 695.3 54.69 695.3 85.88 705.28 85.88 705.28 61.68 787.11 61.68 787.11 135.27 790.35 135.27 790.35 193.65 748.94 193.65 748.94 200.14 733.72 200.14 733.72 206.37 708.52 206.37 708.52 200.14 607.49 200.14"/>


    <polygon class="cls-1" points="207.78 257.76 248.93 258.26 248.93 251.32 307.42 251.32 307.92 245.12 332.45 245.12 332.45 251.32 336.3 251.32 336.3 271.64 367.03 271.64 367.03 251.32 451.67 251.32 492.82 251.32 492.82 396.31 470.66 396.31 470.66 406.23 492.32 406.23 492.32 429.28 436.06 429.28 436.56 395.69 426.14 396.31 426.14 426.06 278.17 425.63 278.17 396.31 267.27 396.31 267.27 429.28 211.5 429.28 211.5 406.23 242.73 406.23 242.38 396.31 208.03 396.31 207.78 257.76"/>



    <polygon class="cls-1" points="661.98 251.32 665.82 251.32 665.82 245.12 690.36 245.12 690.85 251.32 749.35 251.32 749.35 258.26 790.49 257.76 790.24 396.31 755.9 396.31 755.54 406.23 786.77 406.23 786.77 429.28 731 429.28 731 396.31 720.1 396.31 720.1 425.63 572.13 426.06 572.13 396.31 561.72 395.69 562.21 429.28 505.96 429.28 505.96 406.23 527.61 406.23 527.61 396.31 505.46 396.31 505.46 251.32 546.6 251.32 631.24 251.32 661.98 251.32"/>
</g>

</svg>