<?xml version="1.0" encoding="utf-8"?>
<!-- Generator: Adobe Illustrator 19.1.0, SVG Export Plug-In . SVG Version: 6.00 Build 0)  -->
<!DOCTYPE svg PUBLIC "-//W3C//DTD SVG 1.1//EN" "http://www.w3.org/Graphics/SVG/1.1/DTD/svg11.dtd">
<svg version="1.1" id="Слой_1" xmlns="http://www.w3.org/2000/svg" xmlns:xlink="http://www.w3.org/1999/xlink" x="0px" y="0px"
	 viewBox="320 468 1180.4 165" style="enable-background:new 320 468 1180.4 165;" xml:space="preserve">
<style type="text/css">
	.st0{fill:#FFFFFF;}
</style>
<g>
	<g>
		<path class="st0" d="M473.4,603.5l-55-95.2h25.3l38.5,68.8l36.8-68.8h22l-52.3,95.2H473.4z"/>
	</g>
	<g>
		<path class="st0" d="M453,524.9h-76v20.5h59.5c9.3,0,15.6,1.6,18.9,4.8c3.3,3.2,4.9,9.1,4.9,17.8v13c0,8.7-1.6,14.6-4.9,17.8
			c-3.3,3.2-9.6,4.8-18.9,4.8h-59.2c-9.3,0-11.7-1.9-15-5.1c-3.3-3.2-4.7-8.8-4.7-17.5v-6.7h19.7v11.3h63.5v-21.7h-59.5
			c-9.3,0-15.5-1.6-18.8-4.8c-3.3-3.2-4.9-9.1-4.9-17.8v-10.5c0-8.7,1.6-14.6,4.9-17.8s9.5-4.8,18.8-4.8h62.4"/>
	</g>
	<g>
		<path class="st0" d="M617.4,556.1c0,17.4,1.8,27.7,5.5,31.1c3.7,3.3,15.1,5,34.1,5c17.7,0,28.4-1,32.3-2.9
			c4.5-2.3,6.8-8.6,6.8-18.8h14.2c0,15.1-3.2,24.6-9.5,28.6c-6.3,3.9-20.9,5.9-43.9,5.9c-23.4,0-38.3-2.8-44.5-8.3
			c-6.2-5.6-9.3-19-9.3-40.4c0-21.6,3.1-35.2,9.2-40.7c6.1-5.6,21-8.3,44.6-8.3c23.2,0,37.9,1.9,44.1,5.8c6.2,3.9,9.3,13.4,9.3,28.6
			h-14.2c0-10.2-2.1-16.3-6.2-18.4c-4.2-2.1-15.1-3.1-32.9-3.1c-19.1,0-30.5,1.6-34.2,4.9C619.2,528.1,617.4,538.5,617.4,556.1z"/>
		<path class="st0" d="M790.7,508.3l50,95.2h-16l-11.3-21.1h-67.8l-11.1,21.1h-16l50-95.2C768.5,508.3,790.7,508.3,790.7,508.3z
			 M807.4,569.6l-25.9-49.9h-3.6L752,569.6H807.4z"/>
		<path class="st0" d="M847.7,590.7h5.6c3.2,0,5.7-2.7,7.5-8.1c2.1-6.5,3.2-17.3,3.2-32.4V548v-1.9v-1.5c0-1.7,0-3.3,0-5
			c0-1.6,0-3.2,0-4.7v-26.6h97v95.2h-14.2v-82.4h-68.7v18v6.4c0,8.8-0.3,16.5-0.8,23.1c-0.8,10.3-2.3,18.3-4.5,23.9
			c-2.7,7.3-6.5,11-11.3,11h-13.8V590.7z"/>
		<path class="st0" d="M981.4,508.3h14.2v34.9h62.7c8.6,0,15.3,2.4,20,7.1c5.1,5.1,7.6,12.7,7.6,22.9c0,10.3-2.3,17.9-7,22.9
			s-11.3,7.4-19.9,7.4h-77.6V508.3z M995.6,556v34.7h62.7c4.2,0,7.5-1.4,9.9-4.3c2.4-2.8,3.6-7.3,3.6-13.3s-1.2-10.3-3.5-13
			c-2.4-2.7-5.6-4.1-9.8-4.1C1058.5,556,995.6,556,995.6,556z"/>
		<path class="st0" d="M1209,575.7c0,9.4-2.6,16.3-7.7,20.9c-5.1,4.6-12.7,6.9-22.6,6.9h-76.3v-95.2h73c9.7,0,17.2,2.3,22.4,7
			c5.2,4.6,7.8,11.3,7.8,20.1c0,9.6-3.6,15.7-10.7,18.4c4.1,1.4,7.3,3.7,9.7,7C1207.5,564.7,1209,569.7,1209,575.7z M1191.3,535.4
			c0-4.4-1.1-7.7-3.3-10.1c-2.7-2.8-6.9-4.2-12.8-4.2h-58.7v27.1h58.7c6,0,10.2-1,12.6-3.1C1190.1,543,1191.3,539.7,1191.3,535.4z
			 M1116.5,561v29.7h62c5.4,0,9.4-1.4,12.2-4.1c2.7-2.7,4.1-6.3,4.1-10.8c0-4.4-1.4-7.9-4.2-10.7c-2.8-2.8-6.8-4.2-12.1-4.2
			L1116.5,561L1116.5,561z"/>
		<path class="st0" d="M1342.4,603.5h-14.2v-82.7l-80.9,82.7h-21.4v-95.2h14.2v83.5l81.6-83.5h20.7L1342.4,603.5L1342.4,603.5z"/>
		<path class="st0" d="M1468.2,508.3l0.1,95.2H1454V569h-66.7c-4.2,0-7.8,1-10.8,3.1c-3,2.1-4.5,4.7-4.5,7.9v23.4h-14.2V580
			c0-4.6,1.3-8.5,4-11.6c2-2.3,4.8-4.2,8.2-5.6c-3.9-1.7-6.7-3.8-8.5-6.5c-2.5-3.9-3.8-9.8-3.8-17.8c0-9.2,2.2-16.5,6.5-22.1
			c4.4-5.5,10.6-8.3,18.6-8.3h85.4V508.3z M1454,556.3v-35.2h-65.4c-5.1,0-8.8,0.9-11.2,2.7c-3.6,2.7-5.4,7.7-5.4,14.9
			s1.8,12.1,5.3,14.8c2.5,1.9,6.3,2.8,11.4,2.8H1454z"/>
	</g>
</g>
</svg>
