<!-- Generator: Adobe Illustrator 17.1.0, SVG Export Plug-In  -->
<svg version="1.1"
	 xmlns="http://www.w3.org/2000/svg" xmlns:xlink="http://www.w3.org/1999/xlink" xmlns:a="http://ns.adobe.com/AdobeSVGViewerExtensions/3.0/"
	 x="0px" y="0px" width="212.3px" height="43px" viewBox="0 0 212.3 43" enable-background="new 0 0 212.3 43" xml:space="preserve"
	>
<defs>
</defs>
<path fill="#1A3B57" d="M203.9,28.1c-0.2-0.6-0.5-1.2-0.7-1.6c0.4-1.6,0.6-3.3,0.6-5c0-11.8-9.7-21.5-21.5-21.5H21.5
	C9.7,0,0,9.7,0,21.5S9.7,43,21.5,43h160.8c5,0,9.7-1.8,13.4-4.7c0.8-0.3,1.6-0.5,2.4-0.5c2.8,0,8.9,3.2,14.3-2.2
	C212.3,35.6,205.7,33.3,203.9,28.1z"/>
</svg>