<svg version="1.1" id="360svg" xmlns="http://www.w3.org/2000/svg" x="0px" y="0px" viewBox="0 0 58.7 31.9" style="enable-background:new 0 0 58.7 31.9;" xml:space="preserve">
                    <style type="text/css">
                        .st0 {
                            fill: #F7B221;
                        }
                    </style>
                            <g>
                                <g>
                                    <path class="st0" d="M17.1,12.1c-1.2,0-2.4-0.5-3-0.8l-0.6,2.2c0.7,0.5,2.1,0.9,3.8,0.9c3.2,0,5.2-1.7,5.2-3.9
                       c0-1.7-1.2-2.8-2.8-3.1v0c1.6-0.6,2.3-1.6,2.3-3c0-1.8-1.5-3.2-4.3-3.2c-1.7,0-3.2,0.5-4,1l0.6,2.2c0.5-0.3,1.6-0.8,2.7-0.8
                       c1.3,0,1.9,0.6,1.9,1.3c0,1.1-1.3,1.5-2.3,1.5h-1.2v2.1h1.2c1.3,0,2.6,0.6,2.6,1.8C19.4,11.4,18.6,12.1,17.1,12.1z"></path>
                                    <path class="st0" d="M33.6,9.8c0-2.7-1.8-4.2-4-4.2c-1.2,0-2.1,0.4-2.7,1h-0.1c0.3-1.5,1.5-2.9,4.2-3.1c0.5,0,0.8-0.1,1.2,0V1.3
                       c-0.3,0-0.7,0-1.2,0c-2,0.1-3.7,0.7-4.9,1.9c-1.4,1.3-2.3,3.3-2.3,5.7c0,3.1,1.7,5.6,5.1,5.6C31.7,14.5,33.6,12.4,33.6,9.8z
                        M28.8,12.3c-1.4,0-2-1.2-2.1-2.6c0-0.4,0-0.6,0.1-0.7c0.3-0.6,1-1.1,1.8-1.1c1.3,0,1.9,1,1.9,2.2C30.6,11.3,29.9,12.3,28.8,12.3z
                       "></path>
                                    <path class="st0" d="M39.1,14.5c3.3,0,4.9-2.7,4.9-6.7c0-3.5-1.3-6.6-4.8-6.6c-3.3,0-4.9,2.9-4.9,6.6
                       C34.3,11.5,35.8,14.5,39.1,14.5z M39.1,3.5C40.3,3.5,41,5,41,7.8c0,2.9-0.6,4.4-1.8,4.4s-1.9-1.4-1.9-4.3
                       C37.3,4.9,38,3.5,39.1,3.5z"></path>
                                    <path class="st0" d="M47.4,5.3c1.5,0,2.8-1.1,2.8-2.7c0-1.4-1.1-2.6-2.7-2.6c-1.5,0-2.8,1.2-2.7,2.7C44.7,4.1,45.9,5.3,47.4,5.3z
                        M47.5,1.3c0.8,0,1.3,0.7,1.3,1.4c0,0.8-0.5,1.4-1.3,1.4s-1.3-0.6-1.3-1.4C46.2,1.9,46.7,1.3,47.5,1.3z"></path>
                                    <path class="st0" d="M58.6,16.5c-0.7-4.9-9.5-7.6-10.5-7.9c-0.8-0.2-1.6,0.2-1.9,1c-0.2,0.8,0.2,1.6,1,1.9c3.3,0.9,8,3.2,8.3,5.4
                       c0.2,1.1-1.1,2.5-3.4,4c-6.2,3.8-20.6,3.4-20.8,3.4c-0.8,0-1.5,0.6-1.5,1.4s0.6,1.5,1.4,1.5c0.1,0,0.7,0,1.7,0
                       c4.2,0,15.1-0.4,20.7-3.8C57.4,21.3,59,18.9,58.6,16.5z"></path>
                                    <path class="st0" d="M21.2,20.1c-0.6-0.6-1.5-0.6-2.1,0c-0.6,0.6-0.6,1.5,0,2.1l2,2c-4-0.1-10.7-0.8-14.8-3.3
                       c-1.5-1-3.4-2.4-3.2-3.9c0.2-2.2,4.3-4.6,6.8-5.5c0.8-0.3,1.2-1.2,0.9-1.9c-0.3-0.8-1.2-1.2-1.9-0.9C7.9,9,0.5,11.9,0,16.7
                       c-0.2,2.4,1.3,4.7,4.6,6.8c4.8,3,12.2,3.7,16.5,3.8l-2.1,2.1c-0.6,0.6-0.6,1.5,0,2.1c0.3,0.3,0.7,0.4,1.1,0.4s0.8-0.1,1.1-0.4
                       l4.6-4.6c0.6-0.6,0.6-1.5,0-2.1L21.2,20.1z"></path>
                                </g>
                            </g>
                  </svg>