<?xml version="1.0" encoding="utf-8"?>
<!-- Generator: Adobe Illustrator 19.1.0, SVG Export Plug-In . SVG Version: 6.00 Build 0)  -->
<!DOCTYPE svg PUBLIC "-//W3C//DTD SVG 1.1//EN" "http://www.w3.org/Graphics/SVG/1.1/DTD/svg11.dtd">
<svg version="1.1" id="Слой_1" xmlns="http://www.w3.org/2000/svg" xmlns:xlink="http://www.w3.org/1999/xlink" x="0px" y="0px"
	 viewBox="0 0 264 264" style="enable-background:new 0 0 264 264;" xml:space="preserve">
<style type="text/css">
	.st0{fill:#0476B8;}
</style>
<g>
	<path class="st0" d="M132,0C59.2,0,0,59.2,0,132c0,72.8,59.2,132,132,132c72.8,0,132-59.2,132-132C264,59.3,204.9,0,132,0L132,0z
		 M216.3,199.4l-8-8c-4.7-4.7-12.3-4.7-17,0c-4.7,4.7-4.7,12.3,0,17l8,8c-15.5,12.4-34.6,20.7-55.4,23V228c0-6.6-5.4-12-12-12
		c-6.6,0-12,5.4-12,12v11.3c-20.8-2.3-39.8-10.5-55.4-23l8-8c4.7-4.7,4.7-12.3,0-17c-4.7-4.7-12.3-4.7-17,0l-8,8
		c-12.4-15.5-20.7-34.6-23-55.4H36c6.6,0,12-5.4,12-12c0-6.6-5.4-12-12-12H24.7c2.3-20.8,10.6-39.8,23-55.4l8,8
		c2.3,2.3,5.4,3.5,8.5,3.5c3.1,0,6.1-1.2,8.5-3.5c4.7-4.7,4.7-12.3,0-17l-8-8C80.2,35.2,99.2,27,120,24.7V36c0,6.6,5.4,12,12,12
		c6.6,0,12-5.4,12-12V24.7c20.8,2.3,39.8,10.6,55.4,23l-8,8c-4.7,4.7-4.7,12.3,0,17c4.7,4.7,12.3,4.7,17,0l8-8
		c12.4,15.5,20.7,34.6,23,55.4H228c-6.6,0-12,5.4-12,12c0,6.6,5.4,11.9,12,11.9h11.3C237,164.7,228.8,183.8,216.3,199.4L216.3,199.4
		z M216.3,199.4"/>
	<path class="st0" d="M156,120h-12V84c0-6.6-5.4-12-12-12c-6.6,0-12,5.4-12,12v48c0,6.6,5.4,12,12,12h24c6.6,0,12-5.4,12-12
		C168,125.4,162.6,120,156,120L156,120z M156,120"/>
</g>
</svg>
