<?xml version="1.0" encoding="utf-8"?>
<!-- Generator: Adobe Illustrator 19.1.0, SVG Export Plug-In . SVG Version: 6.00 Build 0)  -->
<!DOCTYPE svg PUBLIC "-//W3C//DTD SVG 1.1//EN" "http://www.w3.org/Graphics/SVG/1.1/DTD/svg11.dtd">
<svg version="1.1" id="Слой_1" xmlns="http://www.w3.org/2000/svg" xmlns:xlink="http://www.w3.org/1999/xlink" x="0px" y="0px"
	 viewBox="0 0 244.5 138.2" style="enable-background:new 0 0 244.5 138.2;" xml:space="preserve">
<style type="text/css">
	.st0{fill-rule:evenodd;clip-rule:evenodd;fill:#155072;}
</style>
<g>
	<g>
		<path class="st0" d="M209.6,87.6c8.1,7.9,16.6,15.3,23.8,24c3.2,3.9,6.2,7.8,8.5,12.3c3.3,6.4,0.3,13.4-5.4,13.7l-35.5,0
			c-9.1,0.8-16.4-2.9-22.6-9.2c-4.9-5-9.5-10.3-14.2-15.5c-1.9-2.1-4-4.1-6.4-5.7c-4.8-3.1-9-2.2-11.8,2.9
			c-2.8,5.1-3.5,10.8-3.7,16.6c-0.4,8.4-2.9,10.5-11.3,10.9c-17.9,0.8-34.9-1.9-50.8-10.9c-13.9-8-24.7-19.2-34.2-32
			c-18.3-24.8-32.3-52.1-45-80.1c-2.8-6.3-0.8-9.7,6.2-9.8c11.6-0.2,23.1-0.2,34.7,0c4.7,0.1,7.8,2.8,9.6,7.2
			c6.3,15.4,13.9,30,23.5,43.6c2.6,3.6,5.2,7.2,8.9,9.8c4.1,2.8,7.2,1.9,9.2-2.7c1.2-2.9,1.8-6,2-9.1c0.9-10.7,1-21.4-0.6-32.1
			c-1-6.7-4.7-11-11.4-12.2c-3.4-0.6-2.9-1.9-1.2-3.8C85.1,2.1,87.8,0,93.1,0h40.1c6.3,1.2,7.7,4.1,8.6,10.4l0,44.5
			c-0.1,2.5,1.2,9.8,5.7,11.4c3.5,1.2,5.9-1.7,8-3.9c9.6-10.2,16.4-22.2,22.6-34.7c2.7-5.5,5.1-11.2,7.3-16.9
			c1.7-4.2,4.3-6.3,9.1-6.2l38.6,0c1.1,0,2.3,0,3.4,0.2c6.5,1.1,8.3,3.9,6.3,10.3c-3.2,10-9.3,18.3-15.3,26.6
			c-6.4,8.9-13.3,17.5-19.7,26.5C201.8,76.4,202.3,80.5,209.6,87.6L209.6,87.6z M209.6,87.6"/>
	</g>
</g>
</svg>
