<svg width="50" height="50" id="Capa_1" xmlns="http://www.w3.org/2000/svg" viewBox="2157.2 1105.5 47.7 47.9"><style>.st0{opacity:.72}.st1{fill:#133849}.st2{fill:#fff}.st3{fill:#0077b7}.st4{fill:#fab11a}.st5{fill:#0a2e43}</style><circle class="st4" cx="2181.1" cy="1129.5" r="23.5"/><path class="st5" d="M2193.4 1124.1l-4.1-4.1c-.3-.3-.9-.3-1.2 0-.3.3-.3.9 0 1.2l2.6 2.6v9.9c0 .9-.7 1.6-1.6 1.6-.9 0-1.6-.7-1.6-1.6v-2.4c0-1.5-1-2.8-2.4-3.2v-6.9c0-1.8-1.5-3.3-3.3-3.3h-6c-1.8 0-3.3 1.5-3.3 3.3v16.8h-1.1c-.5 0-.9.4-.9.9s.4.9.9.9h14.9c.5 0 .9-.4.9-.9s-.4-.9-.9-.9h-1.1v-8c.4.3.7.8.7 1.3v2.4c0 1.8 1.5 3.3 3.3 3.3 1.8 0 3.3-1.5 3.3-3.3v-8.2c.1.1.3.1.4.1.2 0 .5-.1.6-.3.3-.3.3-.9-.1-1.2zm-19.1-.5h9.1v4.2h-9.1v-4.2zm1.5-4h6c.8 0 1.5.7 1.5 1.5v.7h-9.1v-.7c.1-.8.7-1.5 1.6-1.5zm-1.5 18.4v-8.4h9.1v8.4h-9.1zm0 0"/></svg>