<svg width="50" height="50" id="Capa_1" xmlns="http://www.w3.org/2000/svg" viewBox="2315.7 1105.5 47.7 47.9"><style>.st0{opacity:.72}.st1{fill:#133849}.st2{fill:#fff}.st3{fill:#0077b7}.st4{fill:#fab11a}.st5{fill:#0a2e43}</style><circle class="st4" cx="2339.6" cy="1129.5" r="23.5"/><path class="st5" d="M2350.2 1128.2h-1.7l.1-1.9c0-.2-.1-.4-.2-.6-.1-.2-.4-.2-.6-.2h-17.2c-.2 0-.4.1-.6.2-.1.2-.2.4-.2.6l.3 7.3c.1 1.8 1.2 3.3 2.7 4h-3.3c-.4 0-.8.3-.8.8 0 .4.3.8.8.8h19.4c.4 0 .8-.3.8-.8 0-.4-.4-.8-.8-.8h-3.4c1.3-.6 2.2-1.7 2.6-3h2.1c1.8 0 3.2-1.4 3.2-3.2 0-1.8-1.4-3.2-3.2-3.2zm-6.6 8.2h-8.8c-1.6 0-3-1.3-3.1-2.9l-.3-6.5h15.6l-.3 6.5c-.1 1.7-1.4 2.9-3.1 2.9zm6.6-3.4h-1.9l.2-3.3h1.7c.9 0 1.6.7 1.6 1.6 0 1-.7 1.7-1.6 1.7zm-13.3-8.8c.1.1.3.1.4.1.3 0 .5-.1.7-.4.2-.4.1-.9-.3-1.1-.4-.3-.7-.7-.8-1.3-.1-.6.1-1.2.4-1.6l.3-.3c.7-.8 1.5-1.7 1.7-2.9.1-.4-.2-.8-.6-.9-.4-.1-.8.2-.9.6-.1.8-.7 1.4-1.3 2.2l-.3.3c-.7.7-.9 1.8-.8 2.9.1 1.1.7 1.9 1.5 2.4zm2.4-1.7c.3.7.7 1.3 1.3 1.7.1.1.3.2.5.2s.5-.1.6-.3c.3-.3.2-.8-.1-1.1-.3-.3-.6-.6-.8-1-.3-.8 0-1.6 1-2.6.7-.7 1.1-1.6 1.3-2.5.1-.4-.2-.8-.6-.9-.4-.1-.8.2-.9.6-.1.6-.4 1.2-.9 1.7-.6.5-2.1 2.1-1.4 4.2zm0 0"/></svg>