<svg width="50" height="50" id="Capa_1" xmlns="http://www.w3.org/2000/svg" viewBox="1858.5 1003.3 47.7 47.9"><style>.st0{opacity:.72}.st1{fill:#133849}.st2{fill:#fff}.st3{fill:#0077b7}.st4{fill:#fab11a}.st5{fill:#0a2e43}</style><circle class="st4" cx="1882.2" cy="1027.7" r="23.5"/><path class="st5" d="M1893.1 1019.6c-.4-.5-1.1-.9-1.8-.9H1876c-.4 0-.9.1-1.2.3l-.8-2.7c-.1-.4-.5-.8-1-.8h-3.5c-.4 0-.8.4-.8.8v.1c0 .4.4.8.8.8h3l1.5 5.4 2.1 7.4c-1.2.3-2.1 1.4-2.1 2.7 0 1.4 1.1 2.6 2.6 2.7-.1.3-.2.7-.1 1.1.1 1.3 1.2 2.4 2.5 2.5 1.6.1 2.9-1.1 2.9-2.7 0-.3-.1-.6-.1-.9h3.1c-.1.4-.2.8-.1 1.2.1 1.3 1.2 2.3 2.5 2.4 1.6.1 2.9-1.1 2.9-2.7 0-1.5-1.2-2.7-2.7-2.7H1877c-.5 0-.9-.4-1-.9 0-.5.4-1 .9-1h12.5c1.1 0 2-.7 2.2-1.8l2.1-8.4c.1-.6-.1-1.3-.6-1.9zm-5.8 15.8c.5 0 .9.4.9.9s-.4.9-.9.9-.9-.4-.9-.9.4-.9.9-.9zm-8.2 0c.5 0 .9.4.9.9s-.4.9-.9.9-.9-.4-.9-.9.4-.9.9-.9zm-3.2-12.8l-.4-1.4c-.1-.2 0-.4.1-.5.1-.1.2-.2.4-.2h1.7l.5 2.1h-2.3zm.5 1.8h2.1l.4 1.9h-2l-.5-1.9zm1.9 5.6c-.2 0-.4-.2-.5-.4l-.4-1.4h1.9l.4 1.8h-1.4zm4.5 0h-1.3l-.4-1.8h1.7v1.8zm0-3.7h-2.1l-.4-1.9h2.5v1.9zm0-3.7h-2.9l-.5-2.1h3.3v2.1zm3.2 7.4h-1.4v-1.8h1.8l-.4 1.8zm.8-3.7h-2.2v-1.9h2.6l-.4 1.9zm-2.2-3.7v-2.1h3.4l-.4 2.1h-3zm5.2 7c-.1.2-.3.4-.5.4h-1.4l.4-1.8h1.9l-.4 1.4zm.8-3.3h-1.9l.4-1.9h2l-.5 1.9zm1.2-5.1l-.4 1.4h-2.1l.4-2.1h1.5c.2 0 .4.1.4.2.2.1.3.3.2.5zm0 0"/></svg>