<svg width="100" height="100" id="Capa_1" xmlns="http://www.w3.org/2000/svg" viewBox="-3802 2528.5 47.7 47.9"><style>.st0{opacity:.72}.st1{fill:#133849}.st2{fill:#fff}.st3{fill:#0077b7}</style><g class="st0"><path class="st1" d="M-3771.2 2531.6c-9.4.3-18.6 7.2-21.5 15.9-.6 1.7-.8 3.4-.9 5.1v.6c0 1.2.2 2.4.5 3.5.9 4.2 3.7 11.2 11.8 18.8.5.5 1.4.5 2.1 0 11.4-7.6 17.3-14.6 20.1-18.8.8-1.1 1.5-2.3 2-3.5.2-.4.2-.6.2-.6.5-1.1.8-2.2 1.1-3.3 2.3-10-4.7-18-15.4-17.7z"/></g><path class="st2" d="M-3781 2528.9c-9.3.3-17 7.6-17.9 16.9-.2 1.9-.1 3.7.2 5.4 0 0 0 .2.1.6.3 1.3.7 2.5 1.3 3.7 1.9 4.4 6.2 11.9 15.9 19.9.6.5 1.5.5 2.1 0 9.7-8.1 14.1-15.5 15.9-20 .5-1.2 1-2.4 1.3-3.7.1-.4.1-.6.1-.6.2-1.2.3-2.3.3-3.5.1-10.6-8.6-19.1-19.3-18.7z"/><path class="st3" d="M-3775.6 2549.4h-3c-.8 0-1.5.7-1.5 1.5v2.3c0 .8.7 1.5 1.5 1.5h3c.8 0 1.5-.7 1.5-1.5v-2.3c0-.8-.7-1.5-1.5-1.5zm.4 3.8c0 .2-.2.4-.4.4h-3c-.2 0-.4-.2-.4-.4v-2.3c0-.2.2-.4.4-.4h3c.2 0 .4.2.4.4v2.3z"/><path class="st3" d="M-3769.2 2545.2c0-.1 0-.2-.1-.3l-3.3-5.8c-.1-.2-.3-.3-.5-.3h-14.5c-.2 0-.4.1-.5.3l-3.3 5.8c0 .1-.1.2-.1.3 0 1.3.8 2.4 1.9 2.9v9.6c0 .3.2.5.5.5h17.3c.3 0 .5-.2.5-.5v-9.6c1.3-.5 2.1-1.6 2.1-2.9zm-18.1-5.2h13.9l2.6 4.5h-19.1l2.6-4.5zm11.7 5.6c-.2 1-1 1.7-2.1 1.7s-1.9-.7-2.1-1.7h4.2zm-5.3 0c-.2 1-1 1.7-2.1 1.7-1 0-1.9-.7-2.1-1.7h4.2zm-9.4 0h4.1c-.2 1-1 1.7-2.1 1.7-1 0-1.8-.7-2-1.7zm8 11.6h-3.1v-5.9c0-.4.3-.8.8-.8h1.6c.4 0 .8.3.8.8l-.1 5.9zm10.1 0h-9v-5.9c0-1-.8-1.9-1.9-1.9h-1.6c-1 0-1.9.8-1.9 1.9v5.9h-1.9v-8.8h.2c1.1 0 2.1-.6 2.6-1.4.6.8 1.5 1.4 2.6 1.4s2.1-.6 2.6-1.4c.6.8 1.5 1.4 2.6 1.4s2.1-.6 2.6-1.4c.6.8 1.5 1.4 2.6 1.4h.2v8.8h.3zm-.2-9.9c-1 0-1.9-.7-2.1-1.7h4.1c-.1 1-.9 1.7-2 1.7z"/></svg>