<svg width="50" height="50" id="Capa_1" xmlns="http://www.w3.org/2000/svg" viewBox="1661.9 1067.1 47.7 47.9"><style>.st0{opacity:.72}.st1{fill:#133849}.st2{fill:#fff}.st3{fill:#0077b7}.st4{fill:#fab11a}.st5{fill:#0a2e43}</style><circle class="st4" cx="1685.7" cy="1091.1" r="23.5"/><path class="st5" d="M1697.4 1083.6h-2.4l-.1-.2c-.4-.8-1.3-1.3-2.2-1.3h-20.2c-.5 0-.9.4-.9.9v13.4c0 .5.4.9.9.9h1.6c.4 1.4 1.7 2.5 3.2 2.5 1.5 0 2.8-1 3.2-2.5h8.8c.4 1.4 1.7 2.5 3.2 2.5 1.5 0 2.8-1 3.2-2.5h1.9c.5 0 .9-.4.9-.9v-5.3c0-.5-.1-1.1-.4-1.6l-2.3-4.1h1.4c.3 0 .6.3.6.6v1.5c0 .5.4.9.9.9s.9-.4.9-.9v-1.5c.2-1.3-.8-2.4-2.2-2.4zm-7.7 4.5h-3.2v-4.1h3.2v4.1zm-12.1 0v-4.1h3.2v4.1h-3.2zm4.5-4.2h3.2v4.1h-3.2v-4.1zm-5.7 0v4.1h-2.9v-4.1h2.9zm1 14.1c-.9 0-1.6-.7-1.6-1.6 0-.9.7-1.6 1.6-1.6.9 0 1.6.7 1.6 1.6-.1.9-.8 1.6-1.6 1.6zm15.3 0c-.9 0-1.6-.7-1.6-1.6 0-.9.7-1.6 1.6-1.6.9 0 1.6.7 1.6 1.6-.1.9-.8 1.6-1.6 1.6zm3.2-2.5c-.4-1.4-1.7-2.5-3.2-2.5-1.5 0-2.8 1-3.2 2.5h-8.8c-.4-1.4-1.7-2.5-3.2-2.5-1.5 0-2.8 1-3.2 2.5h-.7v-5.6h16.7l6.7 2.7v2.9h-1.1zm.9-4.9l-5.8-2.3v-4.3h1.7c.3 0 .5.1.6.4.1-.1 3.5 6.1 3.5 6.2zm0 0"/></svg>