<svg width="50" height="50" id="Capa_1" xmlns="http://www.w3.org/2000/svg" viewBox="2394 1105.5 47.7 47.9"><style>.st0{opacity:.72}.st1{fill:#133849}.st2{fill:#fff}.st3{fill:#0077b7}.st4{fill:#fab11a}.st5{fill:#0a2e43}</style><circle class="st4" cx="2417.8" cy="1129.5" r="23.5"/><path class="st5" d="M2430.3 1135.8c-.5-1.1-1.8-1.6-3-1.2-.5.2-.8.3-1.3.6v-9h2.3c1.2 0 2.2-1 2.2-2.2v-.9c0-.6-.2-1.2-.7-1.6l-2.1-2.1-.2-.2v-1.2c0-1.2-1-2.2-2.2-2.2-3.7 0-6.7 3-6.7 6.7v1.5c0 .4-.3.7-.7.7h-4.4c-.5 0-.9.1-1.4.2-.6-.9-1.5-1.5-2.5-1.6-2.3-.4-4.3 1.4-4.3 3.7v6c0 .4.3.7.7.7.8 0 1.6-.3 2.2-.7v1.6c-1.1-.4-2.3.1-2.8 1.2-.5 1.1 0 2.4 1.2 2.9 3.5 1.5 7.1 2.4 11.3 2.4 4.3 0 7.8-.9 11.3-2.4 1.1-.5 1.6-1.8 1.1-2.9zm-10.2-11.8v-1.5c0-2.9 2.3-5.2 5.2-5.2.4 0 .7.3.7.7v.7h-.7c-2 0-3.7 1.7-3.7 3.7v1.5c0 .4-.3.7-.7.7h-.9c0-.1.1-.4.1-.6zm-6 2.2h5.9v2.3c0 .4-.3.7-.7.7h-4.4c-.4 0-.7-.3-.7-.7v-2.3zm-1.4.1v2.2c0 1.2 1 2.2 2.2 2.2h4.4c1.2 0 2.2-1 2.2-2.2v-2.4c.9-.3 1.5-1.1 1.5-2.1v-1.5c0-1.2 1-2.2 2.2-2.2h.9c.2 0 .4.1.5.2l2.1 2.1c.1.1.2.3.2.5v.9c0 .4-.3.7-.7.7h-3c-.4 0-.7.3-.7.7v10.2c-.5.1-1 .3-1.5.4v-.2c0-2-1.7-3.7-3.7-3.7h-4.4c-2 0-3.6 1.5-3.7 3.5-.5-.2-1-.3-1.5-.5v-5.2c0-1.7 1.3-3.3 3-3.6zm8.8 9.6v.4c-1.2.2-2.5.3-3.7.3-1.7 0-3.5-.2-5.2-.6v-.2c0-1.2 1-2.2 2.2-2.2h4.4c1.4.1 2.3 1.1 2.3 2.3zm-13.3-5.9c0 1-.6 1.8-1.5 2.1v-5.2c0-1.3 1.2-2.4 2.6-2.2.5.1 1 .4 1.3.8-.3.2-.6.5-.9.8-1 1-1.5 2.3-1.5 3.7zm20.4 7.4c-3.3 1.4-6.7 2.3-10.7 2.3-4 0-7.4-.9-10.7-2.3-.4-.2-.6-.6-.4-1 .2-.4.6-.5 1-.4 3.2 1.4 6.4 2.2 10.1 2.2 3.8 0 6.9-.8 10.1-2.2.4-.2.9 0 1 .4.1.4-.1.8-.4 1zm0 0"/><path class="st5" d="M2426 1122.5c0 .4-.3.7-.7.7-.4 0-.7-.3-.7-.7 0-.4.3-.7.7-.7.4 0 .7.3.7.7zm0 0"/></svg>