<svg width="50" height="50" id="Capa_1" xmlns="http://www.w3.org/2000/svg" viewBox="1858.5 1067.1 47.7 47.9"><style>.st0{opacity:.72}.st1{fill:#133849}.st2{fill:#fff}.st3{fill:#0077b7}.st4{fill:#fab11a}.st5{fill:#0a2e43}</style><circle class="st4" cx="1882.3" cy="1091.1" r="23.5"/><path class="st5" d="M1893.9 1082.3h-1.7v-1.8c0-.4-.3-.8-.7-.8-.1 0-1.8-.3-3.8.1-2.3.4-4.1 1.4-5.3 3-1.2-1.6-3.1-2.6-5.3-3-2.1-.4-3.8-.1-3.8-.1-.4.1-.7.4-.7.8v1.8h-1.7c-.5 0-.8.4-.8.8v15.8c0 .3.1.5.4.7.2.2.5.2.8.1.1 0 6.3-2.2 11 0 .2.1.5.1.7 0 4.7-2.1 10.9 0 11 0h.3c.2 0 .3-.1.5-.2.2-.2.4-.4.4-.7V1083c-.5-.3-.8-.7-1.3-.7zm-22.4 15.5V1084h.9v11.1c0 .2.1.5.3.6.2.2.4.2.7.2 0 0 3.7-.5 6.3 1.3-3.3-.5-6.6.2-8.2.6zm9.9-1.3c-1.2-1.1-2.7-1.8-4.5-2.1-.9-.2-1.7-.2-2.3-.2h-.5v-13c1.6-.1 5.5.1 7.4 3.2v12.1zm1.7-12c1.8-3.1 5.8-3.3 7.4-3.2v13c-.7 0-1.7 0-2.9.2-1.8.3-3.3 1-4.5 2.1v-12.1zm1.7 12.8c2.7-1.8 6.3-1.3 6.3-1.3.2 0 .5 0 .7-.2.2-.2.3-.4.3-.6V1084h.9v13.8c-1.6-.4-4.9-1.1-8.2-.5zm0 0"/></svg>