<svg width="120" height="120" id="Capa_1" xmlns="http://www.w3.org/2000/svg" viewBox="1606.3 830.9 120.7 139.3"><style>.st0{opacity:.72}.st1{fill:#133849}.st2{fill:#fff}.st3{fill:#0077b7}.st4{fill:#fab11a}.st5{fill:#0a2e43}</style><g class="st0"><path class="st1" d="M1682.1 845.9c-23.9.8-47.4 18.2-54.6 40.4-1.4 4.4-2.1 8.8-2.2 12.9v1.4c.1 3.1.5 6.1 1.2 8.9 2.4 10.6 9.5 28.5 30 47.8 1.3 1.2 3.5 1.2 5.3 0 29-19.4 44-37.2 51.2-47.9 2-2.8 3.8-5.8 5.2-8.9.4-.9.6-1.4.6-1.4 1.2-2.8 2.1-5.6 2.7-8.5 5.6-25.2-12.1-45.6-39.4-44.7z"/></g><path class="st2" d="M1657.3 839c-23.7.8-43.4 19.3-45.7 42.9-.5 4.7-.2 9.3.6 13.7l.3 1.5c.7 3.3 1.8 6.5 3.2 9.4 4.8 11.3 15.8 30.2 40.6 50.8 1.5 1.3 3.7 1.3 5.3 0 24.8-20.6 35.8-39.5 40.6-50.8 1.4-3 2.5-6.1 3.2-9.4l.3-1.5c.6-2.9.9-5.9.9-9 0-26.9-22.3-48.6-49.3-47.6z"/><path class="st3" d="M1670 926.9h-8.4V921h8.4v5.9zm0-6.8h-3.8v-7.6c.8-.3 1.6-.7 2.4-1.1.4-.2.8-.5 1.4-.8v9.5zm0-10.4c-.7.4-1.4.8-1.8 1-.6.3-1.3.6-1.9.9V910c.7-.3 1.4-.6 2.1-1 .4-.2 1-.6 1.7-.9v1.6zm0-2.7c-.8.5-1.6.9-2.1 1.2-.5.3-1.1.6-1.7.8v-55.3l3.8 2.1V907zm-4.7 13.1h-3.8v-6.5c1.3-.2 2.6-.4 3.8-.8v7.3zm0-8.2c-1.2.4-2.4.7-3.8.8v-1.5c1.3-.2 2.5-.5 3.8-1v1.7zm0-2.6c-1.2.5-2.5.8-3.8 1V851l3.8 2.1v56.2zm-4.6 17.6h-3.8V921h3.8v5.9zm0-6.8h-3.8v-6.4c.6.1 1.2.1 1.9.1.6 0 1.3 0 1.9-.1v6.4zm0-7.3c-.6.1-1.2.1-1.9.1-.6 0-1.3 0-1.9-.1v-1.5c.6.1 1.2.1 1.9.1.6 0 1.3 0 1.9-.1v1.5zm-4.7 14.1h-8.4V921h8.4v5.9zm0-6.8h-3.8v-7.3c1.2.4 2.5.7 3.8.8v6.5zm0-7.4c-1.3-.2-2.5-.5-3.8-.9v-1.5c1.2.4 2.5.7 3.8.9v1.5zm0-2.4c-1.3-.2-2.6-.5-3.8-1V875c1.2-.5 2.5-.8 3.8-1v36.3zm0-37.1c-1.3.2-2.6.5-3.8.9v-1.5c1.2-.4 2.5-.7 3.8-.9v1.5zm0-2.4c-1.3.2-2.5.4-3.8.8v-10.2l3.8-2.1v11.5zm-4.6 49.3h-3.8v-9.4c1.2.7 2.4 1.3 3.8 1.8v7.6zm0-8.6c-1.3-.5-2.6-1.1-3.8-1.9v-1.8c1.2.8 2.4 1.5 3.8 2.1v1.6zm0-2.5c-1.3-.6-2.6-1.3-3.8-2.2v-29.1c1.2-.9 2.4-1.6 3.8-2.2V909zm0-34.5c-1.3.6-2.6 1.3-3.8 2.1v-1.8c1.2-.7 2.4-1.4 3.8-1.9v1.6zm0-2.6c-1.3.5-2.6 1.1-3.8 1.8V864l3.8-2.1v10zm-4.7 37.1c-5.2-3.8-8.7-9.9-8.7-16.8s3.4-13.1 8.7-16.8v1.9c-4.4 3.5-7.2 9-7.2 15s2.8 11.4 7.2 15v1.7zm0-3c-3.9-3.4-6.3-8.3-6.3-13.8s2.4-10.4 6.3-13.8V906zm28.6-2s-2.3 1.3-4.4 2.5v-51.3l-10.2-5.7v60.9c-.6.1-1.3.1-1.9.1-.6 0-1.3 0-1.9-.1v-52.7l-10.2 5.7v10.8c-5.8 3.9-9.6 10.5-9.6 17.9 0 7.4 3.8 14 9.6 17.9v17.7h24.2V910c2.6-1.5 5.9-3.4 6-3.5l-.5-.8s-3 1.8-5.5 3.2v-1.6c2.3-1.3 4.8-2.7 4.8-2.8l-.4-.5zm2.9 2l-1.6-2.8 8.1-2.8-6.5 5.6zm-.2 1.4l10.9-9.4-13.6 4.7 2.7 4.7z"/></svg>