<svg id="Слой_1" xmlns="http://www.w3.org/2000/svg" viewBox="0 0 58.7 31.9"><style>.st0{fill:#f7b221}</style><path class="st0" d="M17.1 12.1c-1.2 0-2.4-.5-3-.8l-.6 2.2c.7.5 2.1.9 3.8.9 3.2 0 5.2-1.7 5.2-3.9 0-1.7-1.2-2.8-2.8-3.1 1.6-.6 2.3-1.6 2.3-3 0-1.8-1.5-3.2-4.3-3.2-1.7 0-3.2.5-4 1l.6 2.2c.5-.3 1.6-.8 2.7-.8 1.3 0 1.9.6 1.9 1.3 0 1.1-1.3 1.5-2.3 1.5h-1.2v2.1h1.2c1.3 0 2.6.6 2.6 1.8.2 1.1-.6 1.8-2.1 1.8zm16.5-2.3c0-2.7-1.8-4.2-4-4.2-1.2 0-2.1.4-2.7 1h-.1c.3-1.5 1.5-2.9 4.2-3.1.5 0 .8-.1 1.2 0V1.3H31c-2 .1-3.7.7-4.9 1.9-1.4 1.3-2.3 3.3-2.3 5.7 0 3.1 1.7 5.6 5.1 5.6 2.8 0 4.7-2.1 4.7-4.7zm-4.8 2.5c-1.4 0-2-1.2-2.1-2.6 0-.4 0-.6.1-.7.3-.6 1-1.1 1.8-1.1 1.3 0 1.9 1 1.9 2.2.1 1.2-.6 2.2-1.7 2.2zm10.3 2.2c3.3 0 4.9-2.7 4.9-6.7 0-3.5-1.3-6.6-4.8-6.6-3.3 0-4.9 2.9-4.9 6.6 0 3.7 1.5 6.7 4.8 6.7zm0-11C40.3 3.5 41 5 41 7.8c0 2.9-.6 4.4-1.8 4.4s-1.9-1.4-1.9-4.3c0-3 .7-4.4 1.8-4.4zm8.3 1.8c1.5 0 2.8-1.1 2.8-2.7 0-1.4-1.1-2.6-2.7-2.6-1.5 0-2.8 1.2-2.7 2.7-.1 1.4 1.1 2.6 2.6 2.6zm.1-4c.8 0 1.3.7 1.3 1.4 0 .8-.5 1.4-1.3 1.4s-1.3-.6-1.3-1.4c0-.8.5-1.4 1.3-1.4z"/><path class="st0" d="M58.6 16.5c-.7-4.9-9.5-7.6-10.5-7.9-.8-.2-1.6.2-1.9 1-.2.8.2 1.6 1 1.9 3.3.9 8 3.2 8.3 5.4.2 1.1-1.1 2.5-3.4 4-6.2 3.8-20.6 3.4-20.8 3.4-.8 0-1.5.6-1.5 1.4s.6 1.5 1.4 1.5h1.7c4.2 0 15.1-.4 20.7-3.8 3.8-2.1 5.4-4.5 5-6.9zm-37.4 3.6c-.6-.6-1.5-.6-2.1 0-.6.6-.6 1.5 0 2.1l2 2c-4-.1-10.7-.8-14.8-3.3-1.5-1-3.4-2.4-3.2-3.9.2-2.2 4.3-4.6 6.8-5.5.8-.3 1.2-1.2.9-1.9-.3-.8-1.2-1.2-1.9-.9-1 .3-8.4 3.2-8.9 8-.2 2.4 1.3 4.7 4.6 6.8 4.8 3 12.2 3.7 16.5 3.8L19 29.4c-.6.6-.6 1.5 0 2.1.3.3.7.4 1.1.4s.8-.1 1.1-.4l4.6-4.6c.6-.6.6-1.5 0-2.1l-4.6-4.7z"/></svg>