<svg xmlns="http://www.w3.org/2000/svg" width="26" height="26"><defs><style>.cls-1{fill:#fff;fill-rule:evenodd}</style></defs><path id="Shape_1_копия_3" data-name="Shape 1 копия 3" class="cls-1" d="M1616.77 60.2a1.828 1.828 0 0 0-2.76 0c-.64.638-1.28 1.276-1.92 1.926a.379.379 0 0 1-.53.1c-.41-.227-.86-.411-1.26-.66a19.974 19.974 0 0 1-4.81-4.382 11.411 11.411 0 0 1-1.73-2.765.39.39 0 0 1 .1-.509c.64-.622 1.27-1.261 1.9-1.9a1.835 1.835 0 0 0 0-2.819c-.51-.509-1.01-1.006-1.51-1.515-.52-.52-1.04-1.044-1.56-1.558a1.829 1.829 0 0 0-2.75.005c-.65.638-1.28 1.293-1.94 1.92a3.114 3.114 0 0 0-.98 2.115 9.082 9.082 0 0 0 .69 3.858 23.349 23.349 0 0 0 4.16 6.931 25.772 25.772 0 0 0 8.53 6.671 12.313 12.313 0 0 0 4.72 1.374 3.45 3.45 0 0 0 2.97-1.131c.55-.616 1.18-1.179 1.76-1.769a1.838 1.838 0 0 0 .01-2.8q-1.545-1.553-3.09-3.092zm-1.04-4.312l2-.341a8.949 8.949 0 0 0-7.58-7.352l-.28 2.007a6.91 6.91 0 0 1 5.86 5.685zm3.13-8.678a14.767 14.767 0 0 0-8.44-4.21l-.29 2.008A12.827 12.827 0 0 1 1621 55.541l2-.341a14.831 14.831 0 0 0-4.14-7.991z" transform="translate(-1597 -43)"/></svg>