<svg xmlns="http://www.w3.org/2000/svg" width="31.969" height="32"><defs><style>.cls-1{fill:#165072;fill-rule:evenodd}</style></defs><path id="Shape_1_копия_5" data-name="Shape 1 копия 5" class="cls-1" d="M54.329 1038.17a2.245 2.245 0 0 0-3.389 0c-.792.78-1.585 1.57-2.364 2.37a.464.464 0 0 1-.653.12c-.513-.28-1.059-.51-1.551-.81a24.731 24.731 0 0 1-5.927-5.4 14.084 14.084 0 0 1-2.124-3.4.494.494 0 0 1 .12-.63c.792-.76 1.565-1.55 2.344-2.33a2.252 2.252 0 0 0-.007-3.47c-.619-.63-1.238-1.24-1.858-1.87-.639-.64-1.272-1.28-1.918-1.91a2.26 2.26 0 0 0-3.389 0c-.8.79-1.565 1.59-2.377 2.37a3.842 3.842 0 0 0-1.212 2.6 11.049 11.049 0 0 0 .852 4.75 28.928 28.928 0 0 0 5.124 8.53 31.839 31.839 0 0 0 10.494 8.21 15.159 15.159 0 0 0 5.813 1.69 4.265 4.265 0 0 0 3.656-1.39c.679-.76 1.445-1.45 2.164-2.18a2.266 2.266 0 0 0 .013-3.45q-1.9-1.905-3.811-3.8zm-1.272-5.31l2.457-.42a11.05 11.05 0 0 0-9.329-9.05l-.346 2.47a8.532 8.532 0 0 1 7.218 7zm3.842-10.68a18.081 18.081 0 0 0-10.388-5.18l-.346 2.47a15.827 15.827 0 0 1 13.378 12.96l2.457-.41a18.249 18.249 0 0 0-5.1-9.84z" transform="translate(-30.031 -1017)"/></svg>