<?xml version="1.0" encoding="utf-8"?>
<!-- Generator: Adobe Illustrator 19.1.0, SVG Export Plug-In . SVG Version: 6.00 Build 0)  -->
<!DOCTYPE svg PUBLIC "-//W3C//DTD SVG 1.1//EN" "http://www.w3.org/Graphics/SVG/1.1/DTD/svg11.dtd">
<svg version="1.1" id="Capa_1" xmlns="http://www.w3.org/2000/svg" xmlns:xlink="http://www.w3.org/1999/xlink" x="0px" y="0px"
	 viewBox="-963.9 634 269.9 269.9" style="enable-background:new -963.9 634 269.9 269.9;" xml:space="preserve">
<style type="text/css">
	.st0{fill:#FFFFFF;}
	.st1{fill:#010002;}
	.st2{font-family:'MyriadPro-Semibold';}
	.st3{font-size:27.4507px;}
</style>
<circle class="st0" cx="-828.9" cy="768.9" r="134.9"/>
<path class="st1" d="M-748,773.2l16.1-4.2l-16.1-4.2c-2.1-41.4-35.3-74.6-76.7-76.7l-4.2-16.1l-4.2,16.1
	c-41.4,2.1-74.6,35.4-76.7,76.7l-16.1,4.2l16.1,4.2c2.1,41.4,35.3,74.6,76.7,76.7l4.2,16.1l4.2-16.1
	C-783.3,847.7-750.1,814.5-748,773.2z M-828.9,837.4c-37.8,0-68.5-30.7-68.5-68.5c0-37.8,30.7-68.5,68.5-68.5
	c37.8,0,68.5,30.7,68.5,68.5C-760.4,806.7-791.2,837.4-828.9,837.4z M-816.5,769l-11.9-58.9l-13,58.7h0v0.1v0h0l11.9,59l13-58.7h0
	L-816.5,769L-816.5,769L-816.5,769z M-836.6,768.8l8.1-36.5l7.4,36.6L-836.6,768.8z"/>
<text transform="matrix(1 0 0 1 -836.5632 666.2136)" class="st2 st3">C</text>
<text transform="matrix(1 0 0 1 -840.4201 889.172)" class="st2 st3">Ю</text>
<text transform="matrix(1 0 0 1 -944.5246 777.6274)" class="st2 st3">З</text>
<text transform="matrix(1 0 0 1 -726.0868 777.6273)" class="st2 st3">В</text>
</svg>
